# xmcd CD database file generated by OrangeCD 5.2
#
# Track frame offsets:
#	150
#	14625
#	28615
#	49542
#	67332
#	95787
#	109820
#	123225
#	139482
#	161585
#	179190
#	200580
#
# Disc length: 3017 seconds
#
# Revision: 2
# Processed by: cddbd v1.5.1PL0 Copyright (c) Steve Scherf et al.
# Submitted via: OrangeCD 5.2
#
DISCID=bb0bc70c
DTITLE=Roomful Of Blues - Hot Little Mama
DYEAR=1991
DGENRE=Blues
TTITLE0=Hot Little Mama
TTITLE1=The Big Question
TTITLE2=New Orleans Shuffle
TTITLE3=Sufferin' Mind
TTITLE4=Caravan
TTITLE5=Loan A Helping Hand
TTITLE6=Long Distance Operator
TTITLE7=Something To Remember You By
TTITLE8=Two Bones And A Pick
TTITLE9=Little Fine Healthy Thing
TTITLE10=Sugar Coated Love
TTITLE11=Jeep's Blues
EXTD=
EXTT0=
EXTT1=
EXTT2=
EXTT3=
EXTT4=
EXTT5=
EXTT6=
EXTT7=
EXTT8=
EXTT9=
EXTT10=
EXTT11=
PLAYORDER=
